<svg xmlns="http://www.w3.org/2000/svg" width="140" height="37.538" viewBox="0 0 140 37.538">
  <g id="Grupo_359" data-name="Grupo 359" transform="translate(-2166 -13.97)">
    <rect id="Rectángulo_183" data-name="Rectángulo 183" width="0.966" height="6.523" transform="translate(2271.746 14.837)" fill="#282828"/>
    <path id="Trazado_453" data-name="Trazado 453" d="M2274.192,21.36V16.694h.926v.957a1.652,1.652,0,0,1,.326-.573,1.4,1.4,0,0,1,.49-.351,1.483,1.483,0,0,1,.591-.12,1.543,1.543,0,0,1,.18.011.4.4,0,0,1,.136.039v.93a.493.493,0,0,0-.151-.037l-.16-.013a2.025,2.025,0,0,0-.56.031,1.221,1.221,0,0,0-.436.181.838.838,0,0,0-.279.33,1.1,1.1,0,0,0-.1.478v2.806Z" fill="#282828"/>
    <path id="Trazado_454" data-name="Trazado 454" d="M2281.523,17.725a1.91,1.91,0,0,0-.748-.834,2.194,2.194,0,0,0-1.145-.287,2.155,2.155,0,0,0-1.175.305,1.962,1.962,0,0,0-.742.855,3.006,3.006,0,0,0-.257,1.285,2.869,2.869,0,0,0,.27,1.3,1.92,1.92,0,0,0,.759.82,2.238,2.238,0,0,0,1.144.281h0a2.174,2.174,0,0,0,1.183-.3,1.932,1.932,0,0,0,.729-.846,2.956,2.956,0,0,0,.249-1.251A3.02,3.02,0,0,0,2281.523,17.725Zm-.824,2.18a1.268,1.268,0,0,1-.4.591,1.049,1.049,0,0,1-.668.209h.005a1.051,1.051,0,0,1-.711-.233,1.305,1.305,0,0,1-.39-.614,2.739,2.739,0,0,1-.122-.839,2.65,2.65,0,0,1,.135-.891,1.233,1.233,0,0,1,.409-.583,1.1,1.1,0,0,1,.674-.2,1.045,1.045,0,0,1,.7.228,1.288,1.288,0,0,1,.383.607,2.823,2.823,0,0,1,.12.847A2.616,2.616,0,0,1,2280.7,19.905Z" fill="#282828"/>
    <path id="Trazado_455" data-name="Trazado 455" d="M2282.833,21.36V16.694h.943v.673a1.484,1.484,0,0,1,.78-.627,1.851,1.851,0,0,1,.651-.1,1.89,1.89,0,0,1,.81.174,1.371,1.371,0,0,1,.6.541,1.773,1.773,0,0,1,.229.95V21.36h-.966V18.405a.953.953,0,0,0-.269-.745.99.99,0,0,0-.692-.244,1.565,1.565,0,0,0-.541.095.948.948,0,0,0-.416.286.746.746,0,0,0-.158.481V21.36Z" fill="#282828"/>
    <path id="Trazado_456" data-name="Trazado 456" d="M2289.688,21.392a1.847,1.847,0,0,1-.8-.141.789.789,0,0,1-.4-.4,1.6,1.6,0,0,1-.114-.638V17.389h-.758v-.695h.79l.234-1.373h.7v1.366h1.047v.7h-1.047v2.785a.893.893,0,0,0,.047.336.235.235,0,0,0,.171.141,1.373,1.373,0,0,0,.313.03h.541v.627a1.215,1.215,0,0,1-.263.063,3.194,3.194,0,0,1-.459.024Z" fill="#282828"/>
    <path id="Trazado_457" data-name="Trazado 457" d="M2295.382,18.932a2.918,2.918,0,0,0-.239-1.229,1.821,1.821,0,0,0-.7-.81,2.36,2.36,0,0,0-2.31.026,2.047,2.047,0,0,0-.745.874,3.031,3.031,0,0,0-.257,1.284,2.68,2.68,0,0,0,.282,1.268,1.993,1.993,0,0,0,.788.819,2.326,2.326,0,0,0,1.168.286h.008a2.364,2.364,0,0,0,.88-.163,1.92,1.92,0,0,0,.726-.5,1.582,1.582,0,0,0,.384-.812h-.893a.928.928,0,0,1-.143.322.9.9,0,0,1-.257.242,1.353,1.353,0,0,1-.724.189,1.2,1.2,0,0,1-.693-.192,1.185,1.185,0,0,1-.421-.529,1.879,1.879,0,0,1-.135-.751h3.285Zm-3.277-.306a1.536,1.536,0,0,1,.125-.623,1.219,1.219,0,0,1,.4-.5,1.107,1.107,0,0,1,.669-.194,1.141,1.141,0,0,1,.651.174,1.048,1.048,0,0,1,.387.474,1.718,1.718,0,0,1,.126.666Z" fill="#282828"/>
    <path id="Trazado_458" data-name="Trazado 458" d="M2298.4,21.45a2.249,2.249,0,0,1-1.124-.278,1.932,1.932,0,0,1-.771-.816,2.827,2.827,0,0,1-.28-1.311,2.958,2.958,0,0,1,.259-1.276,1.986,1.986,0,0,1,.747-.858,2.148,2.148,0,0,1,1.169-.307,2.02,2.02,0,0,1,.933.206,1.735,1.735,0,0,1,.662.572,1.834,1.834,0,0,1,.309.852h-.84a1.035,1.035,0,0,0-.171-.429,1,1,0,0,0-.357-.318,1.091,1.091,0,0,0-.527-.114,1.144,1.144,0,0,0-.916.41,1.9,1.9,0,0,0-.351,1.259,2.077,2.077,0,0,0,.33,1.236,1.1,1.1,0,0,0,.952.458,1.049,1.049,0,0,0,.527-.126,1.062,1.062,0,0,0,.523-.736h.822a1.71,1.71,0,0,1-.971,1.38,2.059,2.059,0,0,1-.917.195Z" fill="#282828"/>
    <path id="Trazado_459" data-name="Trazado 459" d="M2301.009,17.056l-.285-2.22h1.105l-.293,2.22Z" fill="#282828"/>
    <path id="Trazado_460" data-name="Trazado 460" d="M2304.163,21.45a2.718,2.718,0,0,1-.916-.153,1.688,1.688,0,0,1-.713-.483,1.593,1.593,0,0,1-.358-.844h.862a.9.9,0,0,0,.229.44,1.011,1.011,0,0,0,.4.257,1.46,1.46,0,0,0,.5.084,1.427,1.427,0,0,0,.717-.16.543.543,0,0,0,.209-.208.525.525,0,0,0,.066-.287.51.51,0,0,0-.034-.207.521.521,0,0,0-.115-.176.95.95,0,0,0-.464-.212l-.93-.221a2.182,2.182,0,0,1-.926-.431,1.04,1.04,0,0,1-.268-.374,1.023,1.023,0,0,1-.083-.454,1.324,1.324,0,0,1,.205-.731,1.371,1.371,0,0,1,.614-.5,2.455,2.455,0,0,1,1.009-.183,2.1,2.1,0,0,1,1.27.352,1.22,1.22,0,0,1,.493,1.02h-.834a.7.7,0,0,0-.093-.282.738.738,0,0,0-.2-.222,1.061,1.061,0,0,0-.647-.182,1.288,1.288,0,0,0-.687.165.549.549,0,0,0-.266.5.42.42,0,0,0,.051.208.4.4,0,0,0,.145.156,1.751,1.751,0,0,0,.58.219l.885.221a1.906,1.906,0,0,1,.564.237,1.282,1.282,0,0,1,.343.322,1.12,1.12,0,0,1,.179.365,1.357,1.357,0,0,1,.051.357,1.257,1.257,0,0,1-.223.756,1.415,1.415,0,0,1-.634.483,2.575,2.575,0,0,1-.971.168Z" fill="#282828"/>
    <path id="Trazado_461" data-name="Trazado 461" d="M2273.427,30.641l-2.306-6.523h.943l1.932,5.42,1.926-5.42h.948l-2.3,6.523Z" fill="#282828"/>
    <g id="Grupo_358" data-name="Grupo 358">
      <path id="Trazado_462" data-name="Trazado 462" d="M2279.2,30.73h0Z" fill="#282828"/>
      <path id="Trazado_463" data-name="Trazado 463" d="M2281.1,27.006a1.9,1.9,0,0,0-.749-.835,2.422,2.422,0,0,0-2.317.018,1.961,1.961,0,0,0-.742.855,3,3,0,0,0-.258,1.286,2.856,2.856,0,0,0,.271,1.3,1.924,1.924,0,0,0,.758.82,2.241,2.241,0,0,0,1.144.281,2.161,2.161,0,0,0,1.182-.3,1.92,1.92,0,0,0,.729-.846,2.969,2.969,0,0,0,.248-1.25A3.02,3.02,0,0,0,2281.1,27.006Zm-.824,2.179a1.273,1.273,0,0,1-.4.592,1.044,1.044,0,0,1-.667.209h0a1.047,1.047,0,0,1-.709-.232,1.3,1.3,0,0,1-.39-.614,2.742,2.742,0,0,1-.122-.84,2.609,2.609,0,0,1,.136-.89,1.207,1.207,0,0,1,.407-.582,1.089,1.089,0,0,1,.675-.206,1.039,1.039,0,0,1,.7.229,1.273,1.273,0,0,1,.383.606,2.778,2.778,0,0,1,.12.846A2.593,2.593,0,0,1,2280.272,29.185Z" fill="#282828"/>
    </g>
    <rect id="Rectángulo_184" data-name="Rectángulo 184" width="0.966" height="6.523" transform="translate(2282.506 24.118)" fill="#282828"/>
    <path id="Trazado_464" data-name="Trazado 464" d="M2289.532,25.09a1.892,1.892,0,0,0-.891-.733,3.125,3.125,0,0,0-1.252-.239h-2.266v6.523l.989,0V28.251h1.408a2.833,2.833,0,0,0,1.207-.241,1.877,1.877,0,0,0,.813-.7,2.03,2.03,0,0,0,.29-1.108A1.893,1.893,0,0,0,2289.532,25.09Zm-.728,1.577a1.234,1.234,0,0,1-.3.434,1.453,1.453,0,0,1-1.015.358H2286.1V24.9h1.349a1.622,1.622,0,0,1,1.038.323,1.114,1.114,0,0,1,.406.928A1.232,1.232,0,0,1,2288.8,26.667Z" fill="#282828"/>
    <path id="Trazado_465" data-name="Trazado 465" d="M2274.022,40.011a3.582,3.582,0,0,1-.916-.114,2.85,2.85,0,0,1-.8-.35,2.018,2.018,0,0,1-.591-.581,1.855,1.855,0,0,1-.291-.811h1.007a1.189,1.189,0,0,0,.3.59,1.415,1.415,0,0,0,.572.361,2.288,2.288,0,0,0,.765.122,2.041,2.041,0,0,0,.717-.122,1.267,1.267,0,0,0,.532-.351.824.824,0,0,0,.2-.565.746.746,0,0,0-.25-.592,1.827,1.827,0,0,0-.751-.351l-1.308-.325a3.023,3.023,0,0,1-.836-.322,1.5,1.5,0,0,1-.559-.555,1.687,1.687,0,0,1-.2-.855,1.6,1.6,0,0,1,.313-.99,2.016,2.016,0,0,1,.853-.652,3.057,3.057,0,0,1,1.221-.229,2.936,2.936,0,0,1,1.315.266,1.985,1.985,0,0,1,.812.7,1.763,1.763,0,0,1,.282.945h-.983a1.2,1.2,0,0,0-.246-.661,1.159,1.159,0,0,0-.52-.354,2.067,2.067,0,0,0-.692-.114,1.481,1.481,0,0,0-1,.295.909.909,0,0,0-.336.7.743.743,0,0,0,.246.592,1.715,1.715,0,0,0,.729.334l1.259.311a2.551,2.551,0,0,1,.954.391,1.516,1.516,0,0,1,.516.609,1.829,1.829,0,0,1,.158.764,1.643,1.643,0,0,1-.311.986,2.071,2.071,0,0,1-.869.677A3.2,3.2,0,0,1,2274.022,40.011Z" fill="#282828"/>
    <path id="Trazado_466" data-name="Trazado 466" d="M2278.263,41.41a2.131,2.131,0,0,1-.759-.126v-.623l.474.009a1.493,1.493,0,0,0,.447-.032.76.76,0,0,0,.277-.123.579.579,0,0,0,.153-.17,1.02,1.02,0,0,0,.079-.167l.145-.392-1.819-4.531h.966l1.309,3.448,1.3-3.448h.943l-1.946,4.928a2.627,2.627,0,0,1-.436.753,1.308,1.308,0,0,1-.52.371A1.829,1.829,0,0,1,2278.263,41.41Z" fill="#282828"/>
    <path id="Trazado_467" data-name="Trazado 467" d="M2284.255,40.011a2.693,2.693,0,0,1-.916-.153,1.688,1.688,0,0,1-.713-.483,1.593,1.593,0,0,1-.358-.844h.862a.908.908,0,0,0,.223.44,1.006,1.006,0,0,0,.4.257,1.465,1.465,0,0,0,.5.084,1.426,1.426,0,0,0,.717-.16.531.531,0,0,0,.209-.208.521.521,0,0,0,.066-.287.508.508,0,0,0-.149-.383.945.945,0,0,0-.464-.212l-.93-.221a2.174,2.174,0,0,1-.925-.431,1.041,1.041,0,0,1-.352-.827,1.335,1.335,0,0,1,.205-.732,1.38,1.38,0,0,1,.614-.5,2.472,2.472,0,0,1,1.009-.183,2.1,2.1,0,0,1,1.27.352,1.228,1.228,0,0,1,.372.449,1.214,1.214,0,0,1,.121.571h-.834a.7.7,0,0,0-.093-.282.735.735,0,0,0-.2-.222,1.064,1.064,0,0,0-.648-.182,1.292,1.292,0,0,0-.687.165.553.553,0,0,0-.2.214.543.543,0,0,0-.063.288.417.417,0,0,0,.05.208.421.421,0,0,0,.145.156,1.758,1.758,0,0,0,.581.219l.884.221a1.906,1.906,0,0,1,.564.237,1.318,1.318,0,0,1,.344.322,1.108,1.108,0,0,1,.178.366,1.346,1.346,0,0,1,.052.357,1.271,1.271,0,0,1-.223.755,1.428,1.428,0,0,1-.634.483A2.571,2.571,0,0,1,2284.255,40.011Z" fill="#282828"/>
    <path id="Trazado_468" data-name="Trazado 468" d="M2288.843,39.953a1.864,1.864,0,0,1-.8-.14.791.791,0,0,1-.4-.4,1.6,1.6,0,0,1-.114-.638v-2.82h-.758v-.7h.79l.235-1.373h.7v1.366h1.046v.7H2288.5v2.783a.888.888,0,0,0,.047.336.236.236,0,0,0,.066.088.225.225,0,0,0,.1.047,1.269,1.269,0,0,0,.313.03h.542v.627a1.18,1.18,0,0,1-.264.063A3.194,3.194,0,0,1,2288.843,39.953Z" fill="#282828"/>
    <path id="Trazado_469" data-name="Trazado 469" d="M2294.537,37.493a2.933,2.933,0,0,0-.239-1.229,1.823,1.823,0,0,0-.7-.81,2.36,2.36,0,0,0-2.31.026,2.038,2.038,0,0,0-.744.874,3.017,3.017,0,0,0-.258,1.284,2.681,2.681,0,0,0,.283,1.268,1.985,1.985,0,0,0,.787.819,2.473,2.473,0,0,0,2.053.117,1.913,1.913,0,0,0,.726-.5,1.569,1.569,0,0,0,.383-.812h-.892a.924.924,0,0,1-.143.322.9.9,0,0,1-.257.242,1.344,1.344,0,0,1-.724.189,1.121,1.121,0,0,1-1.11-.715,1.879,1.879,0,0,1-.135-.751h3.284Zm-3.284-.306a1.536,1.536,0,0,1,.132-.623,1.212,1.212,0,0,1,.4-.5,1.1,1.1,0,0,1,.668-.194,1.139,1.139,0,0,1,.651.173,1.048,1.048,0,0,1,.386.474,1.685,1.685,0,0,1,.127.666Z" fill="#282828"/>
    <path id="Trazado_470" data-name="Trazado 470" d="M2295.638,39.921V35.255h.938v.673a1.854,1.854,0,0,1,.542-.534,1.555,1.555,0,0,1,.884-.229,1.635,1.635,0,0,1,.991.343,1.2,1.2,0,0,1,.344.418,1.7,1.7,0,0,1,.591-.546,1.63,1.63,0,0,1,.83-.213,1.832,1.832,0,0,1,.515.08,1.365,1.365,0,0,1,.493.266,1.329,1.329,0,0,1,.371.517,2.12,2.12,0,0,1,.142.834v3.059h-.97V36.968a1.184,1.184,0,0,0-.129-.6.7.7,0,0,0-.334-.3,1.085,1.085,0,0,0-.436-.088,1.276,1.276,0,0,0-.432.081.886.886,0,0,0-.384.271.78.78,0,0,0-.158.514v3.082h-.966V36.76a.676.676,0,0,0-.137-.433.849.849,0,0,0-.343-.264,1.026,1.026,0,0,0-.409-.088,1.226,1.226,0,0,0-.451.09.9.9,0,0,0-.376.283.771.771,0,0,0-.151.493v3.082Z" fill="#282828"/>
    <rect id="Rectángulo_185" data-name="Rectángulo 185" width="0.916" height="25.445" transform="translate(2264.362 14.658)" fill="#ff664a"/>
    <path id="Trazado_471" data-name="Trazado 471" d="M2169.291,46.587h-1.1V50.5h1.1v.866H2166V50.5h1.112V46.587h-1.1v-.864h3.279Z" fill="#282828"/>
    <path id="Trazado_472" data-name="Trazado 472" d="M2172.873,47.054v1.019h-.312c-1,0-1.275.6-1.275,1.648v1.648h-1.051V47.122h1.03v.984a1.407,1.407,0,0,1,1.41-1.053Z" fill="#282828"/>
    <path id="Trazado_473" data-name="Trazado 473" d="M2175.508,46.986a2.087,2.087,0,0,0-2.267,2.251v0a2.272,2.272,0,1,0,2.267-2.253Zm0,3.686v0c-.843,0-1.214-.393-1.214-1.429s.373-1.427,1.214-1.427,1.214.391,1.214,1.427S2176.349,50.672,2175.508,50.672Z" fill="#282828"/>
    <path id="Trazado_474" data-name="Trazado 474" d="M2182.718,48.744v2.625h-1.053v-2.5c0-.781-.344-1.019-.876-1.019-.747,0-1.161.476-1.161,1.656v1.86h-1.056V47.122h1.054v.9a1.568,1.568,0,0,1,1.529-1.037c1.131,0,1.564.647,1.564,1.759Z" fill="#282828"/>
    <path id="Trazado_475" data-name="Trazado 475" d="M2185.464,51.368c-1.112,0-1.418-.458-1.418-1.393V47.916h-.789V47.4l.875-.332.434-.933h.535v.983h1.291v.8H2185.1v2.609h1.189v.84Z" fill="#282828"/>
    <path id="Trazado_476" data-name="Trazado 476" d="M2190.133,50.088c-.119.382-.413.669-1.083.669s-1.147-.288-1.224-1.231h3.287a2.18,2.18,0,0,0,.025-.331,2.008,2.008,0,0,0-2.132-2.209,2.26,2.26,0,0,0,0,4.518c1.512,0,2.021-.78,2.115-1.417h-.988Zm-1.11-2.365c.688,0,1.06.356,1.1,1.1h-2.288v0h0A1.07,1.07,0,0,1,2189.023,47.723Z" fill="#282828"/>
    <path id="Trazado_477" data-name="Trazado 477" d="M2193.98,46.984a1.868,1.868,0,0,1,2.132,1.792H2195.1a.988.988,0,0,0-1.1-.96c-.756,0-1.224.366-1.224,1.427,0,1.079.451,1.427,1.208,1.427a1.04,1.04,0,0,0,1.144-.993h1.011a1.923,1.923,0,0,1-2.15,1.831,2.261,2.261,0,0,1-.013-4.521Z" fill="#282828"/>
    <rect id="Rectángulo_186" data-name="Rectángulo 186" width="1.189" height="1.198" transform="translate(2197.013 48.632)" fill="#282828"/>
    <path id="Trazado_478" data-name="Trazado 478" d="M2180.788,14.655v3.9h-4.967V36.164h4.967v3.9H2166v-3.9h4.966V18.551H2166v-3.9Z" fill="#282828"/>
    <path id="Trazado_479" data-name="Trazado 479" d="M2203.34,14.655h4.929l-8.787,25.405h-7.107l-8.787-25.405h5.044L2194.667,32q.5,1.452,1.338,4.356.65-2.4,1.3-4.356Z" fill="#282828"/>
    <path id="Trazado_480" data-name="Trazado 480" d="M2233.811,20.579a10.791,10.791,0,0,0-4.317-4.813,16.349,16.349,0,0,0-14.9,0,10.77,10.77,0,0,0-4.317,4.813,16.158,16.158,0,0,0-1.373,6.762,16.2,16.2,0,0,0,1.373,6.8,10.794,10.794,0,0,0,4.317,4.814,16.677,16.677,0,0,0,14.9,0,10.76,10.76,0,0,0,4.319-4.816,16.275,16.275,0,0,0,1.373-6.8A16.121,16.121,0,0,0,2233.811,20.579Zm-5.616,13.83q-1.833,2.289-6.151,2.289t-6.189-2.289q-1.872-2.33-1.872-7.068h0q0-4.735,1.875-7.028,1.869-2.333,6.189-2.332t6.151,2.332q1.874,2.291,1.872,7.028T2228.2,34.409Z" fill="#282828"/>
    <path id="Trazado_481" data-name="Trazado 481" d="M2258.6,18.555l-15.7,17.612h15.817v3.9h-21.972v-3.9l15.747-17.612H2236.97v-3.9h21.624Z" fill="#282828"/>
  </g>
</svg>
